# xmcd
# Track frame offsets:
# 150
# 19360
# 40578
# 57384
# 73900
# 89137
# 108443
# 123913
# 138223
# 156579
# 174631
# 194137
#
# Disc length: 2796 seconds
# Revision: 0
# Processed by: cddbd v1.5.2PL0 Copyright (c) Steve Scherf et al.
# Submitted via: VisiTrax 2.10.0.248 - For more info visit www.synapsa.com
#
DISCID=b70aea0c
DTITLE=Alabama - Twentieth Century
DYEAR=1999
DGENRE=
TTITLE0=Twentieth Century
TTITLE1=God Must Have Spent A Little More Time On You
TTITLE2=I'm In That Kind Of Mood
TTITLE3=We Made Love
TTITLE4=Life's Too Short To Love This Fast
TTITLE5=Then We Remember
TTITLE6=Little Things
TTITLE7=Mist Of Desire
TTITLE8=Small Stuff
TTITLE9=Too Much Love
TTITLE10=Write It Down In Blue
TTITLE11=I Love You Enough To Let You Go
EXTD=
EXTT0=
EXTT1=
EXTT2=
EXTT3=
EXTT4=
EXTT5=
EXTT6=
EXTT7=
EXTT8=
EXTT9=
EXTT10=
EXTT11=
PLAYORDER=
